<svg xmlns="http://www.w3.org/2000/svg" viewBox="0 0 512 512" role="img" aria-label="Shield network logo">
  <defs>
    <linearGradient id="gBorder" x1="96" y1="64" x2="416" y2="448" gradientUnits="userSpaceOnUse">
      <stop offset="0" stop-color="#12D6A5"/>
      <stop offset="0.55" stop-color="#2FE7B8"/>
      <stop offset="1" stop-color="#0FB989"/>
    </linearGradient>
    <radialGradient id="gFill" cx="50%" cy="35%" r="75%">
      <stop offset="0" stop-color="#0E1516"/>
      <stop offset="1" stop-color="#050809"/>
    </radialGradient>
    <linearGradient id="gIcon" x1="200" y1="140" x2="320" y2="360" gradientUnits="userSpaceOnUse">
      <stop offset="0" stop-color="#3AF0C2"/>
      <stop offset="1" stop-color="#12C894"/>
    </linearGradient>
  </defs>

  <path
    d="M256 40
       C312 70 372 92 424 112
       V256
       C424 370 346 452 256 484
       C166 452 88 370 88 256
       V112
       C140 92 200 70 256 40
       Z"
    fill="url(#gFill)"
  />

  <path
    d="M256 40
       C312 70 372 92 424 112
       V256
       C424 370 346 452 256 484
       C166 452 88 370 88 256
       V112
       C140 92 200 70 256 40
       Z"
    fill="none"
    stroke="url(#gBorder)"
    stroke-width="22"
    stroke-linejoin="round"
  />

  <g fill="none" stroke="url(#gIcon)" stroke-width="22" stroke-linecap="round" stroke-linejoin="round">
    <path d="M256 152 L256 360" />
    <path d="M256 190 L184 222" />
    <path d="M256 190 L328 222" />
    <path d="M256 250 L204 302" />
    <path d="M256 250 L308 302" />
    <circle cx="184" cy="222" r="20" />
    <circle cx="328" cy="222" r="20" />
    <circle cx="204" cy="302" r="20" />
    <circle cx="308" cy="302" r="20" />
  </g>
</svg>
