<svg width="512" height="512" viewBox="0 0 512 512" fill="none" xmlns="http://www.w3.org/2000/svg">
  <defs>
    <linearGradient id="sp_g" x1="120" y1="90" x2="392" y2="422" gradientUnits="userSpaceOnUse">
      <stop stop-color="#10B981" />
      <stop offset="0.55" stop-color="#34D399" />
      <stop offset="1" stop-color="#6EE7B7" />
    </linearGradient>
    <linearGradient id="sp_bg" x1="120" y1="110" x2="392" y2="402" gradientUnits="userSpaceOnUse">
      <stop stop-color="#052016" />
      <stop offset="1" stop-color="#000000" />
    </linearGradient>
  </defs>

  <path
    d="M256 52L122 112v126c0 109.8 69.7 206.5 134 224 64.3-17.5 134-114.2 134-224V112L256 52z"
    fill="url(#sp_bg)"
    stroke="url(#sp_g)"
    stroke-width="18"
    stroke-linejoin="round"
  />

  <path
    d="M256 138v238"
    stroke="url(#sp_g)"
    stroke-width="18"
    stroke-linecap="round"
    opacity="0.95"
  />

  <circle cx="202" cy="214" r="18" fill="#000000" stroke="url(#sp_g)" stroke-width="12" />
  <circle cx="182" cy="302" r="18" fill="#000000" stroke="url(#sp_g)" stroke-width="12" />

  <circle cx="310" cy="214" r="18" fill="#000000" stroke="url(#sp_g)" stroke-width="12" />
  <circle cx="330" cy="302" r="18" fill="#000000" stroke="url(#sp_g)" stroke-width="12" />

  <path d="M256 178L214 214" stroke="url(#sp_g)" stroke-width="14" stroke-linecap="round" opacity="0.9" />
  <path d="M256 178L298 214" stroke="url(#sp_g)" stroke-width="14" stroke-linecap="round" opacity="0.9" />
  <path d="M214 214L190 302" stroke="url(#sp_g)" stroke-width="14" stroke-linecap="round" opacity="0.75" />
  <path d="M298 214L322 302" stroke="url(#sp_g)" stroke-width="14" stroke-linecap="round" opacity="0.75" />
</svg>
